<?xml version="1.0" encoding="UTF-8"?>
<!DOCTYPE svg PUBLIC "-//W3C//DTD SVG 1.1//EN" "http://www.w3.org/Graphics/SVG/1.1/DTD/svg11.dtd">
<!-- Creator: CorelDRAW 2018 (64-Bit) -->
<svg xmlns="http://www.w3.org/2000/svg" xml:space="preserve" width="150mm" height="80mm" version="1.1" style="shape-rendering:geometricPrecision; text-rendering:geometricPrecision; image-rendering:optimizeQuality; fill-rule:evenodd; clip-rule:evenodd"
viewBox="0 0 15000 8000"
 xmlns:xlink="http://www.w3.org/1999/xlink">
 <defs>
  <style type="text/css">
   <![CDATA[
    .fil1 {fill:#424D53;fill-rule:nonzero}
    .fil0 {fill:#DF6327;fill-rule:nonzero}
   ]]>
  </style>
 </defs>
 <g id="Слой_x0020_1">
  <metadata id="CorelCorpID_0Corel-Layer"/>
  <path class="fil0" d="M2547.5 4000.01c0,-595.14 484.34,-1076.32 1076.32,-1076.32 291.24,0 557.15,117.13 750.26,307.07l37.99 -31.66c-202.61,-199.43 -481.18,-322.89 -788.25,-322.89 -620.47,0 -1123.81,503.34 -1123.81,1123.8 0,620.47 503.34,1123.81 1123.81,1123.81 307.07,0 582.48,-123.46 785.08,-319.73l-34.82 -31.66c-193.11,186.77 -459.02,303.9 -750.26,303.9 -591.98,0 -1076.32,-481.18 -1076.32,-1076.32z"/>
  <path class="fil0" d="M5393.42 4253.26c69.64,0 136.12,-9.49 202.6,-28.49l459.02 883.22 53.81 0 -468.51 -895.88c272.24,-98.13 465.35,-348.22 465.35,-639.46 0,-373.55 -319.73,-680.61 -712.27,-680.61l-522.34 0 0 2215.95 47.49 0 0 -854.73 474.85 0zm0 -1313.74c367.21,0 664.78,284.91 664.78,633.13 0,348.22 -297.57,633.13 -664.78,633.13l-474.85 0 0 -1266.26 474.85 0z"/>
  <polygon class="fil0" points="7318.13,4142.47 6567.87,4142.47 6567.87,2939.52 7444.75,2939.52 7444.75,2892.04 6520.38,2892.04 6520.38,5107.99 7444.75,5107.99 7444.75,5060.51 6567.87,5060.51 6567.87,4189.95 7318.13,4189.95 "/>
  <path class="fil1" d="M8505.25 4047.5c208.93,129.79 348.22,329.22 348.22,497 0,291.24 -237.42,531.83 -528.66,531.83 -291.24,0 -531.83,-246.92 -531.83,-547.65l-47.49 0c0,326.06 259.59,595.14 579.32,595.14 316.56,0 576.15,-256.42 576.15,-579.32 0,-183.6 -145.62,-402.03 -367.22,-534.99l-433.69 -269.08c-129.79,-85.47 -215.27,-231.09 -215.27,-373.55 0,-243.75 199.44,-443.19 443.19,-443.19 243.76,0 443.19,199.44 443.19,443.19l47.49 0c0,-269.08 -221.6,-490.67 -490.68,-490.67 -269.08,0 -490.67,221.59 -490.67,490.67 0,161.45 94.97,329.23 240.59,417.87l427.36 262.75z"/>
  <polygon class="fil1" points="9692.37,5107.99 9692.37,2939.52 10246.36,2939.52 10246.36,2892.04 9090.89,2892.04 9090.89,2939.52 9644.88,2939.52 9644.88,5107.99 "/>
  <path class="fil1" d="M10575.31 3129.34c-199.44,202.57 -322.9,481.16 -322.9,788.24 0,620.48 503.34,1123.82 1123.82,1123.82 620.44,0 1123.77,-503.34 1123.77,-1123.82 0,-307.08 -123.46,-582.49 -319.71,-785.1l-31.67 34.84c186.8,193.08 303.9,459.03 303.9,750.26 0,591.99 -481.17,1076.33 -1076.29,1076.33 -595.17,0 -1076.34,-484.34 -1076.34,-1076.33 0,-291.23 117.11,-557.18 307.05,-750.26l-31.63 -37.98z"/>
  <path class="fil0" d="M10743.07 3917.58c0,-348.24 284.91,-633.15 633.16,-633.15 348.2,0 633.11,284.91 633.11,633.15 0,348.21 -284.91,633.12 -633.11,633.12 -348.25,0 -633.16,-284.91 -633.16,-633.12zm1313.76 0c0,-373.56 -307.08,-680.64 -680.6,-680.64 -373.56,0 -680.64,307.08 -680.64,680.64 0,373.56 307.08,680.6 680.64,680.6 373.52,0 680.6,-307.04 680.6,-680.6z"/>
 </g>
</svg>
